#!OML:ASF G:\JayActor3\Patient Classification 1\Patient 1\Session 5\male.ASF
:FULLY-SPECIFIED
:DEGREES
705
root 9.47861 15.4582 -5.78175 27.349 -93.4306 -11.9659
lowerback 40.9057 0.59375 0.720191
upperback 9.83533 -0.698044 -2.48216
thorax -8.7305 -0.826656 -2.65609
lowerneck 2.88294 0.772523 1.07637
upperneck -26.9176 0.890344 2.04335
head -8.86489 -0.315515 0.50434
rclavicle 1.82882e-014 -1.19271e-014
rhumerus -28.5876 2.05469 -88.2278
rradius 42.9453
rwrist -1.61394
rhand -19.1012 -8.98824
rfingers 7.12502
rthumb 7.20744 -38.8455
lclavicle 1.82882e-014 -1.19271e-014
lhumerus -28.8171 -1.44855 81.9852
lradius 39.5567
lwrist 24.5778
lhand -18.5648 12.0576
lfingers 7.12502
lthumb 7.72522 41.8965
rfemur -51.7412 -3.72347 17.7661
rtibia 89.9214
rfoot 28.9443 -10.2505
rtoes 0.179809
lfemur -72.8849 12.3528 -32.067
ltibia 70.5408
lfoot 14.1239 -4.88387
ltoes -34.0217
706
root 9.34792 15.4627 -5.75766 26.7579 -93.6309 -11.3203
lowerback 40.8627 0.651903 0.651721
upperback 9.80408 -0.653803 -2.49171
thorax -8.74998 -0.805727 -2.64903
lowerneck 2.87927 0.775489 1.1061
upperneck -26.8815 0.879812 1.96667
head -8.85092 -0.314279 0.473489
rclavicle 1.59028e-014 0
rhumerus -28.5891 2.11032 -88.2707
rradius 43.1102
rwrist -1.73063
rhand -19.0418 -8.99194
rfingers 7.12502
rthumb 7.26481 -38.8472
lclavicle 1.59028e-014 0
lhumerus -28.8747 -1.5301 81.996
lradius 39.7662
lwrist 24.6881
lhand -18.5677 11.9459
lfingers 7.12502
lthumb 7.72246 41.7849
rfemur -52.2851 -3.62013 17.5569
rtibia 90.653
rfoot 30.2731 -9.94516
rtoes -0.125457
lfemur -72.7564 12.3314 -31.9945
ltibia 71.1205
lfoot 13.8134 -4.88951
ltoes -34.5488
707
root 9.21936 15.4674 -5.7349 26.311 -93.7944 -10.8503
lowerback 40.8545 0.688847 0.601839
upperback 9.77729 -0.628852 -2.49702
thorax -8.7762 -0.794182 -2.63898
lowerneck 2.88728 0.781406 1.13174
upperneck -26.8667 0.874541 1.89704
head -8.84669 -0.311737 0.445569
rclavicle 1.35174e-014 -6.95746e-015
rhumerus -28.5869 2.16692 -88.3209
rradius 43.2766
rwrist -1.86723
rhand -19.0153 -8.98114
rfingers 7.12502
rthumb 7.29038 -38.8355
lclavicle 1.35174e-014 -6.95746e-015
lhumerus -28.9323 -1.61304 81.9981
lradius 39.9677
lwrist 24.8103
lhand -18.546 11.8565
lfingers 7.12502
lthumb 7.74337 41.6947
rfemur -52.8354 -3.57907 17.3779
rtibia 91.3824
rfoot 31.333 -9.47321
rtoes -0.241752
lfemur -72.5947 12.2984 -31.9019
ltibia 71.675
lfoot 13.5837 -4.91636
ltoes -34.9855
708
root 9.09297 15.4722 -5.71392 26.0587 -93.9151 -10.6149
lowerback 40.8811 0.708235 0.564061
upperback 9.76342 -0.621655 -2.49288
thorax -8.79935 -0.791655 -2.61763
lowerneck 2.90945 0.794214 1.1435
upperneck -26.8779 0.880228 1.83877
head -8.85433 -0.304734 0.423269
rclavicle 1.70955e-014 2.3059e-014
rhumerus -28.5682 2.22164 -88.3709
rradius 43.4344
rwrist -2.01339
rhand -19.0355 -8.9729
rfingers 7.12502
rthumb 7.27088 -38.828
lclavicle 1.70955e-014 2.3059e-014
lhumerus -28.9673 -1.6892 81.9983
lradius 40.1435
lwrist 24.9298
lhand -18.5198 11.8038
lfingers 7.12502
lthumb 7.76868 41.6411
rfemur -53.3698 -3.60476 17.2309
rtibia 92.0976
rfoot 31.9544 -8.85329
rtoes -0.400963
lfemur -72.3921 12.251 -31.7865
ltibia 72.2068
lfoot 13.439 -4.9695
ltoes -35.3211
709
root 8.96686 15.4778 -5.69355 25.8394 -94.0272 -10.4763
lowerback 40.9571 0.721926 0.534632
upperback 9.7666 -0.622624 -2.48958
thorax -8.81899 -0.79423 -2.59788
lowerneck 2.92423 0.808701 1.15233
upperneck -26.882 0.890221 1.79044
head -8.85822 -0.296222 0.404453
rclavicle 2.0276e-014 8.11041e-014
rhumerus -28.5359 2.27591 -88.4248
rradius 43.5697
rwrist -2.16132
rhand -19.1009 -8.96421
rfingers 7.12502
rthumb 7.2078 -38.8215
lclavicle 2.0276e-014 8.11041e-014
lhumerus -28.9794 -1.76301 81.9923
lradius 40.2803
lwrist 25.0412
lhand -18.5129 11.7413
lfingers 7.12502
lthumb 7.77532 41.5783
rfemur -53.8451 -3.67371 17.1057
rtibia 92.7824
rfoot 32.0615 -8.09665
rtoes -0.702551
lfemur -72.1179 12.225 -31.6575
ltibia 72.717
lfoot 13.3581 -5.0528
ltoes -35.6064
710
root 8.84165 15.4835 -5.67426 25.7647 -94.1299 -10.5254
lowerback 41.0572 0.734277 0.504526
upperback 9.78648 -0.628455 -2.48469
thorax -8.82742 -0.799992 -2.57391
lowerneck 2.93334 0.824833 1.15403
upperneck -26.8812 0.904089 1.75195
head -8.85941 -0.286001 0.389858
rclavicle 1.63003e-014 2.22639e-014
rhumerus -28.4891 2.32112 -88.4763
rradius 43.6799
rwrist -2.29296
rhand -19.2039 -8.96311
rfingers 7.12502
rthumb 7.1083 -38.8237
lclavicle 1.63003e-014 2.22639e-014
lhumerus -28.9568 -1.83516 81.9873
lradius 40.3718
lwrist 25.1302
lhand -18.5331 11.6984
lfingers 7.12502
lthumb 7.75583 41.5362
rfemur -54.2934 -3.79249 17.0092
rtibia 93.4442
rfoot 31.6465 -7.22587
rtoes -1.19027
lfemur -71.7984 12.2119 -31.5275
ltibia 73.2068
lfoot 13.3409 -5.16303
ltoes -35.8606
711
root 8.71725 15.4894 -5.65609 25.7017 -94.2319 -10.615
lowerback 41.1658 0.749866 0.475207
upperback 9.81825 -0.632084 -2.47969
thorax -8.82488 -0.805382 -2.55106
lowerneck 2.93306 0.837327 1.15633
upperneck -26.8642 0.914688 1.72076
head -8.85321 -0.277557 0.377776
rclavicle -2.54444e-014 -3.75703e-014
rhumerus -28.4378 2.34857 -88.5274
rradius 43.7664
rwrist -2.39829
rhand -19.3204 -8.97149
rfingers 7.12502
rthumb 6.99588 -38.8359
lclavicle -2.54444e-014 -3.75703e-014
lhumerus -28.9082 -1.91014 81.9826
lradius 40.4261
lwrist 25.1861
lhand -18.5804 11.6741
lfingers 7.12502
lthumb 7.71014 41.5136
rfemur -54.735 -3.94717 16.9573
rtibia 94.0885
rfoot 30.7298 -6.27552
rtoes -1.82205
lfemur -71.4499 12.2235 -31.3962
ltibia 73.679
lfoot 13.3753 -5.29167
ltoes -36.0809
712
root 8.59426 15.4949 -5.63932 25.6317 -94.327 -10.7032
lowerback 41.2622 0.765816 0.452015
upperback 9.85661 -0.633074 -2.47489
thorax -8.81095 -0.809649 -2.53276
lowerneck 2.92064 0.844794 1.16753
upperneck -26.8287 0.919693 1.69175
head -8.83824 -0.272239 0.365223
rclavicle 2.38542e-015 3.57812e-015
rhumerus -28.3883 2.36721 -88.5821
rradius 43.8272
rwrist -2.48541
rhand -19.4494 -8.97421
rfingers 7.12502
rthumb 6.87137 -38.8427
lclavicle 2.38542e-015 3.57812e-015
lhumerus -28.8373 -1.98282 81.9738
lradius 40.4511
lwrist 25.1945
lhand -18.6389 11.6758
lfingers 7.12502
lthumb 7.65371 41.5173
rfemur -55.209 -4.143 16.9678
rtibia 94.7305
rfoot 29.3671 -5.25742
rtoes -2.65212
lfemur -71.1014 12.2556 -31.2666
ltibia 74.1353
lfoot 13.4589 -5.44405
ltoes -36.2857
713
root 8.4735 15.4998 -5.62433 25.5807 -94.4051 -10.7956
lowerback 41.3327 0.77763 0.440533
upperback 9.89567 -0.632704 -2.46865
thorax -8.78824 -0.812889 -2.51972
lowerneck 2.9146 0.849253 1.17902
upperneck -26.7953 0.921889 1.66698
head -8.82521 -0.268673 0.354305
rclavicle -4.37326e-015 9.93923e-015
rhumerus -28.3441 2.37054 -88.6385
rradius 43.8673
rwrist -2.55232
rhand -19.56 -8.98168
rfingers 7.12502
rthumb 6.76453 -38.8536
lclavicle -4.37326e-015 9.93923e-015
lhumerus -28.7539 -2.05549 81.9609
lradius 40.4656
lwrist 25.1531
lhand -18.6916 11.7142
lfingers 7.12502
lthumb 7.6028 41.5576
rfemur -55.7552 -4.38007 17.0517
rtibia 95.3827
rfoot 27.7125 -4.22639
rtoes -3.55833
lfemur -70.7752 12.2998 -31.1401
ltibia 74.5741
lfoot 13.5858 -5.62159
ltoes -36.4691
714
root 8.35553 15.5041 -5.61155 25.5884 -94.4592 -10.916
lowerback 41.3664 0.782513 0.437839
upperback 9.93089 -0.633944 -2.45914
thorax -8.75863 -0.816061 -2.50728
lowerneck 2.9183 0.85297 1.18859
upperneck -26.7687 0.923814 1.64448
head -8.8164 -0.26538 0.344551
rclavicle -4.29375e-014 -1.82882e-014
rhumerus -28.3055 2.36706 -88.6981
rradius 43.8866
rwrist -2.61101
rhand -19.6313 -8.99187
rfingers 7.12502
rthumb 6.69578 -38.866
lclavicle -4.29375e-014 -1.82882e-014
lhumerus -28.6648 -2.11954 81.9401
lradius 40.4812
lwrist 25.0658
lhand -18.7205 11.7989
lfingers 7.12502
lthumb 7.57493 41.6433
rfemur -56.4006 -4.65019 17.2117
rtibia 96.0449
rfoot 25.8618 -3.28532
rtoes -4.44455
lfemur -70.4898 12.3492 -31.0204
ltibia 74.9938
lfoot 13.7543 -5.81688
ltoes -36.6264
715
root 8.24017 15.5074 -5.60072 25.6514 -94.4915 -11.0623
lowerback 41.3695 0.777936 0.443538
upperback 9.95886 -0.640378 -2.44975
thorax -8.7282 -0.82071 -2.49737
lowerneck 2.92038 0.85421 1.20766
upperneck -26.7367 0.922414 1.61782
head -8.80532 -0.263963 0.331977
rclavicle -2.94201e-014 1.07344e-014
rhumerus -28.2764 2.36666 -88.7676
rradius 43.8854
rwrist -2.66945
rhand -19.6621 -8.99782
rfingers 7.12502
rthumb 6.66599 -38.8729
lclavicle -2.94201e-014 1.07344e-014
lhumerus -28.5808 -2.16332 81.9046
lradius 40.5002
lwrist 24.9472
lhand -18.7218 11.8929
lfingers 7.12502
lthumb 7.57372 41.7373
rfemur -57.1486 -4.94028 17.4362
rtibia 96.7059
rfoot 23.9666 -2.49278
rtoes -5.28816
lfemur -70.2405 12.4075 -30.9111
ltibia 75.3925
lfoot 13.9475 -6.02782
ltoes -36.7725
716
root 8.1276 15.51 -5.59192 25.8597 -94.4974 -11.3181
lowerback 41.3385 0.761207 0.450936
upperback 9.97862 -0.657141 -2.43761
thorax -8.69708 -0.829071 -2.48136
lowerneck 2.92726 0.859366 1.22343
upperneck -26.7108 0.925732 1.5886
head -8.79728 -0.259869 0.318752
rclavicle 1.19271e-015 1.03368e-014
rhumerus -28.2537 2.37291 -88.8439
rradius 43.8709
rwrist -2.73572
rhand -19.6641 -9.00321
rfingers 7.12502
rthumb 6.6641 -38.8783
lclavicle 1.19271e-015 1.03368e-014
lhumerus -28.5041 -2.18168 81.8593
lradius 40.5292
lwrist 24.8241
lhand -18.7057 11.9945
lfingers 7.12502
lthumb 7.58922 41.8383
rfemur -58.0045 -5.23746 17.7108
rtibia 97.3468
rfoot 22.1461 -1.88667
rtoes -6.13069
lfemur -70.0317 12.4639 -30.817
ltibia 75.7691
lfoot 14.152 -6.24871
ltoes -36.8834
717
root 8.01564 15.513 -5.58399 26.0456 -94.5146 -11.5417
lowerback 41.2924 0.745853 0.451908
upperback 9.99518 -0.674446 -2.42958
thorax -8.66504 -0.837344 -2.46628
lowerneck 2.92734 0.866843 1.23537
upperneck -26.6805 0.931552 1.55909
head -8.78644 -0.254077 0.30586
rclavicle 2.3059e-014 3.97569e-014
rhumerus -28.2391 2.39994 -88.929
rradius 43.8431
rwrist -2.82301
rhand -19.637 -9.01417
rfingers 7.12502
rthumb 6.69024 -38.8885
lclavicle 2.3059e-014 3.97569e-014
lhumerus -28.4402 -2.17743 81.8054
lradius 40.5657
lwrist 24.7277
lhand -18.6893 12.0543
lfingers 7.12502
lthumb 7.60507 41.8976
rfemur -58.9207 -5.49282 18.0088
rtibia 97.9353
rfoot 20.4594 -1.46682
rtoes -6.98548
lfemur -69.8196 12.5523 -30.7397
ltibia 76.1221
lfoot 14.3379 -6.45548
ltoes -36.9409
718
root 7.90424 15.5167 -5.57639 26.3124 -94.5407 -11.8357
lowerback 41.2326 0.727805 0.448984
upperback 10.0085 -0.69637 -2.42748
thorax -8.63283 -0.847324 -2.45373
lowerneck 2.91994 0.876478 1.24331
upperneck -26.6477 0.939224 1.5282
head -8.77339 -0.246874 0.293048
rclavicle -2.42517e-014 -3.598e-014
rhumerus -28.2333 2.44569 -89.0203
rradius 43.8051
rwrist -2.92095
rhand -19.6162 -9.03699
rfingers 7.12502
rthumb 6.71031 -38.9107
lclavicle -2.42517e-014 -3.598e-014
lhumerus -28.3872 -2.16175 81.7489
lradius 40.6069
lwrist 24.6767
lhand -18.6819 12.082
lfingers 7.12502
lthumb 7.6122 41.925
rfemur -59.8848 -5.70002 18.3105
rtibia 98.4516
rfoot 18.8969 -1.21761
rtoes -7.91876
lfemur -69.5942 12.6585 -30.6877
ltibia 76.4459
lfoot 14.4886 -6.64207
ltoes -36.9531
719
root 7.79335 15.5215 -5.56919 26.7093 -94.5739 -12.2495
lowerback 41.1601 0.707603 0.440657
upperback 10.0194 -0.722829 -2.43057
thorax -8.59967 -0.859001 -2.44216
lowerneck 2.90622 0.886484 1.24898
upperneck -26.616 0.945864 1.4941
head -8.75953 -0.239769 0.279666
rclavicle 1.55052e-014 1.39149e-015
rhumerus -28.2365 2.50233 -89.1137
rradius 43.7648
rwrist -3.03973
rhand -19.5753 -9.08231
rfingers 7.12502
rthumb 6.74986 -38.9547
lclavicle 1.55052e-014 1.39149e-015
lhumerus -28.3443 -2.14892 81.696
lradius 40.6533
lwrist 24.6707
lhand -18.687 12.0835
lfingers 7.12502
lthumb 7.60723 41.9267
rfemur -60.8836 -5.85558 18.6059
rtibia 98.8814
rfoot 17.4216 -1.13162
rtoes -8.86055
lfemur -69.3509 12.7771 -30.6652
ltibia 76.7403
lfoot 14.5916 -6.80151
ltoes -36.9186
